<svg width="107" height="31" viewBox="0 0 107 31" fill="none" xmlns="http://www.w3.org/2000/svg">
<path d="M12.24 1.92H17.4L29.72 30.24H22.68L20.24 24.24H9.24L6.88 30.24H0L12.24 1.92ZM14.64 10.16L11.2 18.96H18.12L14.64 10.16Z" fill="white"/>
<path d="M31.8884 0H37.8884V30.24H31.8884V0Z" fill="white"/>
<path d="M42.2791 10.8H48.2791V30.24H42.2791V10.8ZM41.7991 4.68C41.7991 3.72 42.1324 2.90667 42.7991 2.24C43.4924 1.54667 44.3191 1.2 45.2791 1.2C46.2391 1.2 47.0524 1.54667 47.7191 2.24C48.4124 2.90667 48.7591 3.72 48.7591 4.68C48.7591 5.64 48.4124 6.46667 47.7191 7.16C47.0524 7.82667 46.2391 8.16 45.2791 8.16C44.3191 8.16 43.4924 7.82667 42.7991 7.16C42.1324 6.46667 41.7991 5.64 41.7991 4.68Z" fill="white"/>
<path d="M50.5497 10.8H57.0297L61.9497 24H62.0297L66.5897 10.8H72.6297L64.9497 30.24H58.5897L50.5497 10.8Z" fill="white"/>
<path d="M74.8962 10.8H80.8962V30.24H74.8962V10.8ZM74.4163 4.68C74.4163 3.72 74.7496 2.90667 75.4163 2.24C76.1096 1.54667 76.9362 1.2 77.8962 1.2C78.8562 1.2 79.6696 1.54667 80.3363 2.24C81.0296 2.90667 81.3763 3.72 81.3763 4.68C81.3763 5.64 81.0296 6.46667 80.3363 7.16C79.6696 7.82667 78.8562 8.16 77.8962 8.16C76.9362 8.16 76.1096 7.82667 75.4163 7.16C74.7496 6.46667 74.4163 5.64 74.4163 4.68Z" fill="white"/>
<path d="M84.4869 20.52C84.4869 18.9733 84.7669 17.5733 85.3269 16.32C85.8869 15.0667 86.6469 14 87.6069 13.12C88.5935 12.2133 89.7402 11.52 91.0469 11.04C92.3802 10.56 93.7935 10.32 95.2869 10.32C96.7802 10.32 98.1802 10.56 99.4869 11.04C100.82 11.52 101.967 12.2133 102.927 13.12C103.914 14 104.687 15.0667 105.247 16.32C105.807 17.5733 106.087 18.9733 106.087 20.52C106.087 22.0667 105.807 23.4667 105.247 24.72C104.687 25.9733 103.914 27.0533 102.927 27.96C101.967 28.84 100.82 29.52 99.4869 30C98.1802 30.48 96.7802 30.72 95.2869 30.72C93.7935 30.72 92.3802 30.48 91.0469 30C89.7402 29.52 88.5935 28.84 87.6069 27.96C86.6469 27.0533 85.8869 25.9733 85.3269 24.72C84.7669 23.4667 84.4869 22.0667 84.4869 20.52ZM90.4869 20.52C90.4869 21.9867 90.9002 23.1733 91.7269 24.08C92.5802 24.9867 93.7669 25.44 95.2869 25.44C96.8069 25.44 97.9802 24.9867 98.8069 24.08C99.6602 23.1733 100.087 21.9867 100.087 20.52C100.087 19.0533 99.6602 17.8667 98.8069 16.96C97.9802 16.0533 96.8069 15.6 95.2869 15.6C93.7669 15.6 92.5802 16.0533 91.7269 16.96C90.9002 17.8667 90.4869 19.0533 90.4869 20.52Z" fill="white"/>
</svg>
